# xmcd
# 
# Track frame offsets:
#     150
#     25044
#     48044
#     67369
#     80599
#     123574
#     184169
#     204193
# 
# Disc length: 3211
# 
# Revision: 1
# Processed by: cddbd v1.5.2PL0 Copyright (c) Steve Scherf et al.
# Submitted via: BonkEnc v1.0.6
# 
DISCID=690c8908
DTITLE=Feßmann, Klaus - KlangSteine, CD zum Buch
DYEAR=2008
DGENRE=New Age
TTITLE0=stein geworden ... was ... war
TTITLE1=im fahlen mondlicht
TTITLE2=zur dämmerzeit in sonne verwandelt
TTITLE3=aufgeschlagener stein
TTITLE4=Zusammenstellung: Bach Debussy, Fauré, Pärt
TTITLE5=entfaltete zeitlosigkeit
TTITLE6=in endlos neuen verwandlungen immer
TTITLE7=niemals dasselbe
EXTD=YEAR: 2008
EXTT0=
EXTT1=
EXTT2=
EXTT3=
EXTT4=
EXTT5=
EXTT6=
EXTT7=
PLAYORDER=
